<svg width="86" height="32" viewBox="0 0 86 32" fill="none" xmlns="http://www.w3.org/2000/svg">
<path d="M12.1778 4.22623C12.1778 5.94538 11.3636 7.40188 9.73518 8.59573C8.10675 9.78958 5.95439 10.6492 3.28046 11.1745C2.13112 15.107 1.44671 17.0721 1.22722 17.0721C1.00538 17.0721 0.745774 16.893 0.448408 16.5348C0.148683 16.1767 0 15.8185 0 15.4604C0 15.1022 0.228924 14.1519 0.684413 12.6071C2.10044 7.84838 2.83913 4.52947 2.90285 2.65035C2.52525 2.30175 2.33644 1.98179 2.33644 1.69527C2.33644 1.29652 2.87217 0.91449 3.94127 0.549172C5.01037 0.183853 6.03463 0 7.00933 0C8.51976 0 9.75878 0.389196 10.7264 1.16997C11.694 1.95075 12.1778 2.96792 12.1778 4.22623ZM10.101 4.3695C10.101 3.6699 9.83666 3.09208 9.31037 2.63841C8.78408 2.18475 8.14923 1.95792 7.41054 1.95792C6.67184 1.95792 5.77503 2.19669 4.72009 2.67423C4.87821 3.02522 4.95609 3.34995 4.95609 3.65319C4.95609 4.5438 4.57141 6.43009 3.79967 9.31204C5.68771 8.80346 7.20993 8.09909 8.36636 7.19893C9.52278 6.29876 10.101 5.35562 10.101 4.3695Z" fill="#FFFDFA"/>
<path d="M14.1602 17.0483C13.9242 17.0483 13.6576 16.874 13.3578 16.523C13.0581 16.172 12.9094 15.8186 12.9094 15.4605C12.9094 15.1023 13.3413 13.3784 14.2074 10.2911C15.0736 7.20377 15.5692 4.85427 15.6943 3.24735C15.489 3.1208 15.3096 2.92023 15.1515 2.65042C14.9933 2.38061 14.9155 2.14184 14.9155 1.93411C14.9155 1.56879 15.4512 1.18915 16.5203 0.799953C17.5894 0.410757 18.7741 0.214966 20.0722 0.214966C21.3702 0.214966 22.4959 0.530143 23.447 1.15811C24.3981 1.78607 24.8748 2.6743 24.8748 3.8204C24.8748 4.60118 24.6577 5.32943 24.2258 6.00515C23.7939 6.68087 23.2653 7.23481 22.6446 7.6646C22.0239 8.09439 21.4056 8.47642 20.792 8.8107C20.1784 9.14498 19.6544 9.41956 19.2225 9.63445C18.7907 9.84935 18.5735 10.0045 18.5735 10.1001C18.5735 10.451 18.8449 10.9047 19.3877 11.461C19.9306 12.0174 20.3129 12.3994 20.5324 12.6071C20.7518 12.8149 21.0445 13.0895 21.4056 13.4309C21.7667 13.7723 22.1089 14.0804 22.4322 14.3502C22.7555 14.62 23.0128 14.8444 23.211 15.0187C23.4069 15.193 23.6075 15.3769 23.8128 15.5679C24.207 15.9332 24.4028 16.2293 24.4028 16.4513C24.4028 16.8334 24.1432 17.0244 23.624 17.0244C22.68 17.0244 21.3348 16.1935 19.5883 14.5292C17.8419 12.8674 16.7728 11.4539 16.3787 10.2911C15.64 12.7743 15.2152 14.2117 15.1043 14.6009C14.9933 14.9901 14.8683 15.3936 14.7267 15.8067C14.4741 16.6352 14.2853 17.0483 14.1602 17.0483ZM17.7239 3.89203C17.7239 4.9259 17.3935 6.63789 16.7327 9.02559C16.9994 8.81786 17.5115 8.51223 18.2667 8.10633C19.0219 7.70042 19.7016 7.32555 20.3082 6.98411C20.9147 6.64266 21.4693 6.18422 21.972 5.61118C22.4747 5.03813 22.7272 4.4412 22.7272 3.8204C22.7272 2.83428 21.8776 2.34002 20.1784 2.34002C19.4066 2.34002 18.5098 2.5382 17.4879 2.93695C17.646 3.28794 17.7239 3.6055 17.7239 3.89203Z" fill="#FFFDFA"/>
<path d="M30.7515 17.0243C29.7131 17.0243 28.8045 16.5062 28.0256 15.4723C27.2468 14.4385 26.8574 13.3879 26.8574 12.3206C26.8574 10.8712 27.1217 9.40041 27.648 7.90332C28.1743 6.40623 28.8351 5.10255 29.6305 3.98749C30.4258 2.87243 31.3014 1.96272 32.2619 1.25357C33.2225 0.54442 34.1098 0.19104 34.9288 0.19104C36.2504 0.19104 37.3525 0.799904 38.2328 2.01763C39.1131 3.23536 39.5545 4.60829 39.5545 6.13642C39.5545 7.66455 39.1367 9.26909 38.3036 10.9476C37.4682 12.6286 36.3566 14.0612 34.9642 15.2455C33.5717 16.4322 32.1675 17.0243 30.7515 17.0243ZM33.6189 13.7293C34.6503 12.791 35.5353 11.6329 36.274 10.2552C37.0127 8.87751 37.3832 7.57621 37.3832 6.35132C37.3832 5.12642 37.1519 4.13075 36.687 3.36669C36.2221 2.60262 35.6769 2.22059 35.0468 2.22059C34.4166 2.22059 33.6307 2.71484 32.6867 3.70096C31.7427 4.68709 30.8931 5.98122 30.1379 7.58098C29.3827 9.18074 29.0051 10.7136 29.0051 12.1773C29.0051 13.0536 29.1939 13.7651 29.5715 14.3143C29.9491 14.8635 30.388 15.1381 30.8931 15.1381C31.679 15.1381 32.5876 14.6677 33.6189 13.7293Z" fill="#FFFDFA"/>
<path d="M35.5894 23.9008C36.2667 24.7771 36.8237 25.2141 37.265 25.2141C37.7064 25.2141 38.0745 24.9753 38.3743 24.4978C38.674 24.0202 38.9643 23.2681 39.2475 22.2414C39.5307 21.2147 39.7974 20.1593 40.0499 19.0777C40.3024 17.996 40.6281 16.5634 41.0293 14.7798C41.4305 12.9962 41.8199 11.3964 42.1975 9.98052C42.4335 9.19974 42.6625 8.81055 42.8819 8.81055C43.1486 8.81055 43.4248 8.98246 43.708 9.3239C43.9912 9.66534 44.1328 10.0354 44.1328 10.4342C44.1328 10.7995 43.8873 11.9098 43.4011 13.765C42.9126 15.6203 42.4807 17.2869 42.1031 18.7673C41.7255 20.2476 41.355 21.697 40.9939 23.1129C40.3166 25.6128 39.0917 26.8616 37.3122 26.8616C36.5263 26.8616 35.7593 26.5273 35.0112 25.8587C34.2631 25.1902 33.8902 24.6171 33.8902 24.1396C33.8902 23.9319 33.9728 23.6907 34.138 23.4114C34.3032 23.132 34.4566 22.9935 34.5982 22.9935C34.7705 22.9935 34.9522 23.1081 35.141 23.3397C35.3298 23.5713 35.4785 23.7576 35.5894 23.9008ZM32.0305 10.4342C32.1485 10.1381 32.3774 9.9065 32.7172 9.73698C33.0571 9.56745 33.3497 9.53163 33.5975 9.6343C33.8453 9.73459 34.0129 10.1524 34.1026 10.8855C34.1923 11.6161 34.1569 12.182 33.9964 12.5807C33.9374 12.7288 33.8194 12.8338 33.64 12.8983C33.4606 12.9628 33.3072 12.9675 33.1751 12.915C32.8258 12.7717 32.5166 12.3969 32.2499 11.7904C31.9856 11.1791 31.9125 10.7303 32.0305 10.4342Z" fill="#FFFDFA"/>
<path d="M56.1927 9.18078C56.1927 10.0332 55.7396 10.7256 54.8357 11.2581C53.9318 11.7905 52.9075 12.058 51.7676 12.058C50.6277 12.058 49.5917 11.9314 48.6642 11.6759C48.4447 12.3755 48.3338 13.0011 48.3338 13.5503C48.3338 14.0994 48.5037 14.5245 48.8412 14.8277C49.1786 15.1309 49.738 15.2814 50.5168 15.2814C51.2956 15.2814 52.098 15.1429 52.924 14.8635C53.7501 14.5841 54.2032 14.4457 54.2811 14.4457C54.6893 14.4457 54.8947 14.6056 54.8947 14.9232C54.8947 15.353 54.4156 15.8186 53.455 16.32C52.4945 16.8214 51.5576 17.0721 50.6466 17.0721C49.4194 17.0721 48.4211 16.702 47.6493 15.9619C46.8776 15.2217 46.4929 14.2857 46.4929 13.1563C46.4929 12.0269 46.7926 10.845 47.3897 9.61056C47.9868 8.37612 48.7586 7.33747 49.7026 6.49461C50.6466 5.65175 51.5835 5.22913 52.511 5.22913C53.4385 5.22913 54.2858 5.67563 55.0481 6.56624C55.8104 7.45685 56.1927 8.32837 56.1927 9.18078ZM52.629 7.11541C52.0461 7.11541 51.4396 7.42104 50.8118 8.03468C50.1817 8.64832 49.6483 9.40761 49.207 10.3149C49.8371 10.4582 50.5522 10.5298 51.3546 10.5298C52.157 10.5298 52.858 10.3985 53.455 10.1359C54.0521 9.87321 54.3519 9.52699 54.3519 9.09721C54.3519 8.66742 54.1583 8.23047 53.7737 7.78397C53.3866 7.33747 53.0066 7.11541 52.629 7.11541Z" fill="#FFFDFA"/>
<path d="M61.2076 17.0721C60.2871 17.0721 59.4257 16.7092 58.6233 15.9857C57.8209 15.2623 57.4197 14.4027 57.4197 13.407C57.4197 12.4113 57.7501 11.2629 58.4109 9.95678C59.0717 8.65071 59.926 7.53804 60.9715 6.61399C62.017 5.68995 63.0366 5.22913 64.0278 5.22913C64.6721 5.22913 65.2385 5.52281 65.727 6.11258C66.2156 6.70234 66.4587 7.21808 66.4587 7.66458C66.4587 7.79352 66.4185 7.89858 66.3407 7.98692C66.2628 8.07527 66.1471 8.11825 65.9984 8.11825C65.8498 8.11825 65.5854 7.97499 65.2078 7.68846C64.8302 7.40194 64.4927 7.25867 64.193 7.25867C63.3434 7.25867 62.3522 8.01558 61.2193 9.52699C60.0865 11.0384 59.5201 12.3612 59.5201 13.4906C59.5201 13.9848 59.6735 14.374 59.9803 14.6606C60.2871 14.9471 60.7827 15.0903 61.4672 15.0903C62.1516 15.0903 62.7817 15.0068 63.3552 14.8396C63.9287 14.6725 64.3747 14.5054 64.6886 14.3382C65.0025 14.1711 65.248 14.0875 65.4202 14.0875C65.72 14.0875 65.8686 14.2379 65.8686 14.5412C65.8686 15.002 65.3211 15.5392 64.2284 16.1529C63.1333 16.7665 62.128 17.0721 61.2076 17.0721Z" fill="#FFFDFA"/>
<path d="M70.5417 14.6844C70.5417 14.9877 70.714 15.1381 71.0609 15.1381C71.658 15.1381 72.3872 14.9662 73.2439 14.6247C74.1006 14.2833 74.5774 14.1114 74.6718 14.1114C74.955 14.1114 75.0966 14.2618 75.0966 14.5651C75.0966 15.0259 74.6293 15.5607 73.6923 16.1648C72.7554 16.7689 71.9058 17.0721 71.1435 17.0721C70.3812 17.0721 69.7464 16.862 69.2437 16.4394C68.741 16.0168 68.4885 15.5846 68.4885 15.1381C68.4885 14.6916 68.5829 14.1233 68.7717 13.4309C68.9605 12.7385 69.2319 11.824 69.5859 10.685C69.9399 9.5461 70.2184 8.60296 70.4237 7.85561C69.685 8.02991 69.1894 8.11826 68.9369 8.11826C68.6843 8.11826 68.4365 7.98693 68.1934 7.72429C67.948 7.46164 67.8276 7.21093 67.8276 6.97216C67.8276 6.59013 68.8495 6.22481 70.8957 5.87382C71.1789 4.55342 71.3205 3.38344 71.3205 2.36389C71.3205 1.88635 71.4786 1.64758 71.7925 1.64758C72.0592 1.64758 72.3896 1.8195 72.7837 2.16094C73.1779 2.50238 73.3737 2.88919 73.3737 3.31898C73.3737 3.74876 73.2392 4.50566 72.9725 5.58729C73.8694 5.5085 74.5844 5.46791 75.1202 5.46791C76.0642 5.46791 76.5362 5.67564 76.5362 6.08871C76.5362 6.32748 76.2813 6.52566 75.7692 6.68564C75.2571 6.84561 74.1832 7.09155 72.5477 7.42582C72.2173 8.68414 71.7996 10.1215 71.2969 11.7356C70.7919 13.3521 70.5417 14.3334 70.5417 14.6844Z" fill="#FFFDFA"/>
<path d="M83.7814 5.22913C84.3171 5.22913 84.8198 5.52759 85.2918 6.12451C85.7638 6.72144 85.9998 7.24196 85.9998 7.68846C85.9998 7.95827 85.8724 8.09437 85.6222 8.09437C85.4499 8.09437 85.1809 7.95588 84.8198 7.67652C84.4564 7.39716 84.0882 7.25867 83.7106 7.25867C83.333 7.25867 82.7383 7.48073 81.9288 7.92723C81.1169 8.37373 80.7133 8.84172 80.7133 9.33598C80.7133 9.70368 81.4379 10.3316 82.8846 11.2223C83.4345 11.5733 83.9348 12.0221 84.3832 12.5713C84.8316 13.1205 85.0558 13.7102 85.0558 14.3382C85.0558 14.9662 84.6263 15.5798 83.7696 16.1767C82.9129 16.7737 81.9122 17.0721 80.7723 17.0721C79.6324 17.0721 78.6247 16.7928 77.7515 16.2364C76.8783 15.6801 76.4417 15.1548 76.4417 14.6606C76.4417 14.4528 76.4912 14.2905 76.5951 14.1711C76.6965 14.0517 76.8263 13.992 76.9845 13.992C77.1426 13.992 77.3621 14.0947 77.6453 14.3024C78.4949 14.9232 79.3799 15.2336 80.3003 15.2336C81.2207 15.2336 81.8839 15.1262 82.2946 14.9113C82.7029 14.6964 82.9082 14.4098 82.9082 14.0517C82.9082 13.6935 82.6792 13.3115 82.2238 12.9056C81.7659 12.4997 81.2679 12.1368 80.7251 11.8192C80.1823 11.5016 79.682 11.11 79.2265 10.6492C78.771 10.1884 78.5421 9.71801 78.5421 9.24047C78.5421 8.39761 79.1982 7.51655 80.5127 6.60206C81.8249 5.68757 82.9153 5.22913 83.7814 5.22913Z" fill="#FFFDFA"/>
<path d="M26.3874 22.7333C26.7579 22.7047 27.0931 22.9554 27.171 23.3231C27.5415 25.0446 28.9221 29.7006 33.0545 30.3787C36.9014 31.0091 39.4078 30.3358 40.373 29.9848C40.5996 29.9036 40.8403 30.0612 40.8569 30.3047L40.9041 30.9589C40.9253 31.2479 40.7247 31.5057 40.4415 31.5535C39.1553 31.766 35.6412 32.2602 32.92 31.8233C29.0307 31.1977 26.024 27.8812 25.2593 23.4472C25.2027 23.1153 25.441 22.8025 25.7738 22.7787L26.3874 22.7333Z" fill="#FFFDFA"/>
<path d="M55.4235 4.9139C55.3267 4.95688 55.2111 4.92107 55.1544 4.83033C54.8925 4.40055 54.0783 3.27355 52.8959 3.48844C51.7961 3.68901 51.1801 4.11402 50.9512 4.30026C50.8969 4.34324 50.8167 4.32414 50.7907 4.25967L50.7152 4.08776C50.6822 4.01135 50.6916 3.66513 50.7648 3.62454C51.0928 3.44308 52.0179 2.98941 52.7944 2.84376C53.906 2.63842 55.0317 3.2449 55.6571 4.37189C55.7043 4.45546 55.6689 4.80168 55.5816 4.84227L55.4235 4.9139Z" fill="#FFFDFA"/>
</svg>
