<svg width="176" height="55" viewBox="0 0 247 64" fill="none" xmlns="http://www.w3.org/2000/svg">
<rect opacity="0.25" x="1" width="246" height="64" rx="32" fill="#D31172"/>
<path d="M32 4C24.6017 4.08926 17.5315 7.06791 12.2997 12.2997C7.06791 17.5315 4.08926 24.6017 4 32C4.08926 39.3983 7.06791 46.4685 12.2997 51.7003C17.5315 56.9321 24.6017 59.9107 32 60C39.3983 59.9107 46.4685 56.9321 51.7003 51.7003C56.9321 46.4685 59.9107 39.3983 60 32C59.9107 24.6017 56.9321 17.5315 51.7003 12.2997C46.4685 7.06791 39.3983 4.08926 32 4V4ZM48 34H34V48H30V34H16V30H30V16H34V30H48V34Z" fill="#D31172"/>
<path d="M98.176 26.68H100.024L101.416 38.536C103.272 38.344 104.752 37.736 105.856 36.712C106.976 35.688 107.496 34.128 107.416 32.032V31.432C107.416 30.44 107.16 29.64 106.648 29.032C106.136 28.424 105.368 28.088 104.344 28.024L103.144 27.952L103.264 26.464L104.608 26.56C106.016 26.64 107.12 27.064 107.92 27.832C108.736 28.6 109.168 29.72 109.216 31.192L109.24 31.864C109.336 34.616 108.52 36.664 106.792 38.008C105.064 39.352 102.728 40.096 99.784 40.24L98.176 26.68ZM115.546 38.536C116.394 38.44 117.106 38.24 117.682 37.936C118.258 37.632 118.738 37.104 119.122 36.352C119.506 35.6 119.746 34.544 119.842 33.184L120.25 28.144H111.61V26.68H122.218L122.146 28L121.762 32.824C121.65 35.144 121.058 36.904 119.986 38.104C118.93 39.304 117.514 39.936 115.738 40L115.546 38.536ZM111.658 33.184L111.922 31.552H113.506V44.8H111.658V33.184ZM125.31 29.488L124.998 26.68H126.822L127.158 29.488V33.064L127.134 34.576L125.31 34.96V29.488ZM130.677 29.488L130.365 26.68H132.189L132.525 29.488V40H130.677V29.488ZM141.996 31.072C141.996 30.032 141.772 29.288 141.324 28.84C140.876 28.376 140.236 28.144 139.404 28.144H135.156V26.68H139.812C142.5 26.68 143.844 28.168 143.844 31.144V40H141.996V31.072ZM147.34 38.536H151.276C152.524 38.536 153.516 38.192 154.252 37.504C155.004 36.8 155.38 35.648 155.38 34.048V32.584C155.38 31.128 155.1 30.024 154.54 29.272C153.98 28.52 153.132 28.144 151.996 28.144H149.476L148.852 30.808C148.756 31.256 148.708 31.656 148.708 32.008C148.708 32.552 148.852 32.976 149.14 33.28C149.444 33.584 149.94 33.8 150.628 33.928L150.244 35.2C149.124 35.088 148.308 34.776 147.796 34.264C147.3 33.736 147.052 33.008 147.052 32.08C147.052 31.632 147.1 31.16 147.196 30.664L148.108 26.68H152.308C153.86 26.68 155.06 27.192 155.908 28.216C156.772 29.24 157.212 30.712 157.228 32.632V33.976C157.228 36.056 156.708 37.584 155.668 38.56C154.628 39.52 153.268 40 151.588 40H147.34V38.536ZM169.977 26.68C171.513 26.68 172.689 27.192 173.505 28.216C174.337 29.224 174.761 30.696 174.777 32.632V44.8H172.929V32.584C172.929 29.624 171.817 28.144 169.593 28.144H167.073L166.617 30.352C166.521 30.848 166.473 31.296 166.473 31.696C166.473 32.24 166.577 32.68 166.785 33.016C167.009 33.336 167.353 33.552 167.817 33.664L167.361 34.864C166.449 34.72 165.785 34.4 165.369 33.904C164.953 33.408 164.745 32.728 164.745 31.864C164.745 31.352 164.801 30.824 164.913 30.28L165.681 26.68H169.977ZM188.742 32.296C188.902 37.304 185.734 39.952 179.238 40.24L177.774 28.144L177.606 26.68H184.158C185.566 26.68 186.662 27.12 187.446 28C188.246 28.864 188.67 30.048 188.718 31.552L188.742 32.296ZM180.87 38.536C182.774 38.36 184.278 37.808 185.382 36.88C186.486 35.952 186.99 34.408 186.894 32.248V31.672C186.894 30.632 186.638 29.784 186.126 29.128C185.63 28.472 184.926 28.144 184.014 28.144H179.622L180.87 38.536ZM191.872 29.488L191.56 26.68H193.384L193.72 29.488V40H191.872V29.488ZM205.039 31.072C205.039 30.032 204.815 29.288 204.367 28.84C203.919 28.376 203.279 28.144 202.447 28.144H196.831V26.68H202.855C205.543 26.68 206.887 28.168 206.887 31.144V40H205.039V31.072ZM196.807 33.52L197.071 31.912H198.655V40H196.807V33.52Z" fill="#020A2F"/>
</svg>
