<svg width="268" height="99" viewBox="0 0 365 135" fill="current" xmlns="http://www.w3.org/2000/svg">
<g clip-path="url(#clip0)">
<path d="M51.6 17.7C51.6 24.9 48.15 31 41.25 36C34.35 41 25.23 44.6 13.9 46.8C9.03 63.27 6.13 71.5 5.2 71.5C4.26 71.5 3.16 70.75 1.9 69.25C0.63 67.75 0 66.25 0 64.75C0 63.25 0.97 59.27 2.9 52.8C8.9 32.87 12.03 18.97 12.3 11.1C10.7 9.64 9.9 8.3 9.9 7.1C9.9 5.43 12.17 3.83 16.7 2.3C21.23 0.77 25.57 0 29.7 0C36.1 0 41.35 1.63 45.45 4.9C49.55 8.17 51.6 12.43 51.6 17.7ZM42.8 18.3C42.8 15.37 41.68 12.95 39.45 11.05C37.22 9.15 34.53 8.2 31.4 8.2C28.27 8.2 24.47 9.2 20 11.2C20.67 12.67 21 14.03 21 15.3C21 19.03 19.37 26.93 16.1 39C24.1 36.87 30.55 33.92 35.45 30.15C40.35 26.38 42.8 22.43 42.8 18.3Z" fill="black"/>
<path d="M60 71.4C59 71.4 57.8699 70.67 56.5999 69.2C55.3299 67.73 54.7 66.25 54.7 64.75C54.7 63.25 56.53 56.03 60.2 43.1C63.87 30.17 65.97 20.33 66.5 13.6C65.63 13.07 64.8699 12.23 64.1999 11.1C63.5299 9.97003 63.2 8.97003 63.2 8.10002C63.2 6.57002 65.4699 4.98002 70 3.35002C74.53 1.72002 79.55 0.900024 85.05 0.900024C90.55 0.900024 95.32 2.22002 99.3499 4.85002C103.38 7.48002 105.4 11.2 105.4 16C105.4 19.27 104.48 22.32 102.65 25.15C100.82 27.98 98.5799 30.3 95.9499 32.1C93.3199 33.9 90.6999 35.5 88.0999 36.9C85.4999 38.3 83.2799 39.45 81.4499 40.35C79.6199 41.25 78.6999 41.9 78.6999 42.3C78.6999 43.77 79.85 45.67 82.15 48C84.45 50.33 86.07 51.93 87 52.8C87.93 53.67 89.1699 54.82 90.6999 56.25C92.2299 57.68 93.68 58.97 95.05 60.1C96.42 61.23 97.5099 62.17 98.3499 62.9C99.18 63.63 100.03 64.4 100.9 65.2C102.57 66.73 103.4 67.97 103.4 68.9C103.4 70.5 102.3 71.3 100.1 71.3C96.0999 71.3 90.4 67.82 83 60.85C75.6 53.89 71.07 47.97 69.4 43.1C66.27 53.5 64.47 59.52 64 61.15C63.53 62.78 63 64.47 62.4 66.2C61.33 69.67 60.53 71.4 60 71.4ZM75.0999 16.3C75.0999 20.63 73.7 27.8 70.9 37.8C72.03 36.93 74.2 35.65 77.4 33.95C80.6 32.25 83.48 30.68 86.05 29.25C88.62 27.82 90.9699 25.9 93.0999 23.5C95.2299 21.1 96.3 18.6 96.3 16C96.3 11.87 92.7 9.80002 85.5 9.80002C82.2299 9.80002 78.4299 10.63 74.0999 12.3C74.7699 13.77 75.0999 15.1 75.0999 16.3Z" fill="black"/>
<path d="M130.3 71.3C125.9 71.3 122.05 69.13 118.75 64.8C115.45 60.47 113.8 56.07 113.8 51.6C113.8 45.53 114.92 39.37 117.15 33.1C119.38 26.83 122.18 21.37 125.55 16.7C128.92 12.03 132.63 8.21999 136.7 5.24999C140.77 2.27999 144.53 0.799988 148 0.799988C153.6 0.799988 158.27 3.34999 162 8.44999C165.73 13.55 167.6 19.3 167.6 25.7C167.6 32.1 165.83 38.82 162.3 45.85C158.76 52.89 154.05 58.89 148.15 63.85C142.25 68.82 136.3 71.3 130.3 71.3ZM142.45 57.5C146.82 53.57 150.57 48.72 153.7 42.95C156.83 37.18 158.4 31.73 158.4 26.6C158.4 21.47 157.42 17.3 155.45 14.1C153.48 10.9 151.17 9.29999 148.5 9.29999C145.83 9.29999 142.5 11.37 138.5 15.5C134.5 19.63 130.9 25.05 127.7 31.75C124.5 38.45 122.9 44.87 122.9 51C122.9 54.67 123.7 57.65 125.3 59.95C126.9 62.25 128.76 63.4 130.9 63.4C134.23 63.4 138.08 61.43 142.45 57.5Z" fill="black"/>
<path d="M150.8 100.1C153.67 103.77 156.03 105.6 157.9 105.6C159.77 105.6 161.33 104.6 162.6 102.6C163.87 100.6 165.1 97.45 166.3 93.15C167.5 88.85 168.63 84.43 169.7 79.9C170.77 75.37 172.15 69.37 173.85 61.9C175.55 54.43 177.2 47.73 178.8 41.8C179.8 38.53 180.77 36.9 181.7 36.9C182.83 36.9 184 37.62 185.2 39.05C186.4 40.48 187 42.03 187 43.7C187 45.23 185.96 49.88 183.9 57.65C181.83 65.42 180 72.4 178.4 78.6C176.8 84.8 175.23 90.87 173.7 96.8C170.83 107.27 165.64 112.5 158.1 112.5C154.77 112.5 151.52 111.1 148.35 108.3C145.18 105.5 143.6 103.1 143.6 101.1C143.6 100.23 143.95 99.22 144.65 98.05C145.35 96.88 146 96.3 146.6 96.3C147.33 96.3 148.1 96.78 148.9 97.75C149.7 98.72 150.33 99.5 150.8 100.1ZM135.72 43.7C136.22 42.46 137.19 41.49 138.63 40.78C140.07 40.07 141.31 39.92 142.36 40.35C143.41 40.77 144.12 42.52 144.5 45.59C144.88 48.65 144.73 51.02 144.05 52.69C143.8 53.31 143.3 53.75 142.54 54.02C141.78 54.29 141.13 54.31 140.57 54.09C139.09 53.49 137.78 51.92 136.65 49.38C135.53 46.82 135.22 44.94 135.72 43.7Z" fill="black"/>
<path d="M238.1 38.45C238.1 42.02 236.18 44.92 232.35 47.15C228.52 49.38 224.18 50.5 219.35 50.5C214.52 50.5 210.13 49.97 206.2 48.9C205.27 51.83 204.8 54.45 204.8 56.75C204.8 59.05 205.52 60.83 206.95 62.1C208.38 63.37 210.75 64 214.05 64C217.35 64 220.75 63.42 224.25 62.25C227.75 61.08 229.67 60.5 230 60.5C231.73 60.5 232.6 61.17 232.6 62.5C232.6 64.3 230.57 66.25 226.5 68.35C222.43 70.45 218.46 71.5 214.6 71.5C209.4 71.5 205.17 69.95 201.9 66.85C198.63 63.75 197 59.83 197 55.1C197 50.37 198.27 45.42 200.8 40.25C203.33 35.08 206.6 30.73 210.6 27.2C214.6 23.67 218.57 21.9 222.5 21.9C226.43 21.9 230.02 23.77 233.25 27.5C236.48 31.23 238.1 34.88 238.1 38.45ZM223 29.8C220.53 29.8 217.96 31.08 215.3 33.65C212.63 36.22 210.37 39.4 208.5 43.2C211.17 43.8 214.2 44.1 217.6 44.1C221 44.1 223.97 43.55 226.5 42.45C229.03 41.35 230.3 39.9 230.3 38.1C230.3 36.3 229.48 34.47 227.85 32.6C226.21 30.73 224.6 29.8 223 29.8Z" fill="black"/>
<path d="M259.35 71.5C255.45 71.5 251.8 69.98 248.4 66.95C245 63.92 243.3 60.32 243.3 56.15C243.3 51.98 244.7 47.17 247.5 41.7C250.3 36.23 253.92 31.57 258.35 27.7C262.78 23.83 267.1 21.9 271.3 21.9C274.03 21.9 276.43 23.13 278.5 25.6C280.57 28.07 281.6 30.23 281.6 32.1C281.6 32.64 281.43 33.08 281.1 33.45C280.77 33.82 280.28 34 279.65 34C279.02 34 277.9 33.4 276.3 32.2C274.7 31 273.27 30.4 272 30.4C268.4 30.4 264.2 33.57 259.4 39.9C254.6 46.23 252.2 51.77 252.2 56.5C252.2 58.57 252.85 60.2 254.15 61.4C255.45 62.6 257.55 63.2 260.45 63.2C263.35 63.2 266.02 62.85 268.45 62.15C270.88 61.45 272.77 60.75 274.1 60.05C275.43 59.35 276.47 59 277.2 59C278.47 59 279.1 59.63 279.1 60.9C279.1 62.83 276.78 65.08 272.15 67.65C267.51 70.22 263.25 71.5 259.35 71.5Z" fill="black"/>
<path d="M298.9 61.5C298.9 62.77 299.63 63.4 301.1 63.4C303.63 63.4 306.72 62.68 310.35 61.25C313.98 59.82 316 59.1 316.4 59.1C317.6 59.1 318.2 59.73 318.2 61C318.2 62.93 316.22 65.17 312.25 67.7C308.28 70.23 304.68 71.5 301.45 71.5C298.22 71.5 295.53 70.62 293.4 68.85C291.27 67.08 290.2 65.27 290.2 63.4C290.2 61.53 290.6 59.15 291.4 56.25C292.2 53.35 293.35 49.52 294.85 44.75C296.35 39.98 297.53 36.03 298.4 32.9C295.27 33.63 293.17 34 292.1 34C291.03 34 289.98 33.45 288.95 32.35C287.91 31.25 287.4 30.2 287.4 29.2C287.4 27.6 291.73 26.07 300.4 24.6C301.6 19.07 302.2 14.17 302.2 9.90002C302.2 7.90002 302.87 6.90002 304.2 6.90002C305.33 6.90002 306.73 7.62002 308.4 9.05002C310.07 10.48 310.9 12.1 310.9 13.9C310.9 15.7 310.33 18.87 309.2 23.4C313 23.07 316.03 22.9 318.3 22.9C322.3 22.9 324.3 23.77 324.3 25.5C324.3 26.5 323.22 27.33 321.05 28C318.88 28.67 314.33 29.7 307.4 31.1C306 36.37 304.23 42.39 302.1 49.15C299.96 55.92 298.9 60.03 298.9 61.5Z" fill="black"/>
<path d="M355 21.9C357.27 21.9 359.4 23.15 361.4 25.65C363.4 28.15 364.4 30.33 364.4 32.2C364.4 33.33 363.86 33.9 362.8 33.9C362.07 33.9 360.93 33.32 359.4 32.15C357.86 30.98 356.3 30.4 354.7 30.4C353.1 30.4 350.58 31.33 347.15 33.2C343.71 35.07 342 37.03 342 39.1C342 40.64 345.07 43.27 351.2 47C353.53 48.47 355.65 50.35 357.55 52.65C359.45 54.95 360.4 57.42 360.4 60.05C360.4 62.68 358.58 65.25 354.95 67.75C351.32 70.25 347.08 71.5 342.25 71.5C337.42 71.5 333.15 70.33 329.45 68C325.75 65.67 323.9 63.47 323.9 61.4C323.9 60.53 324.11 59.85 324.55 59.35C324.98 58.85 325.53 58.6 326.2 58.6C326.87 58.6 327.8 59.03 329 59.9C332.6 62.5 336.35 63.8 340.25 63.8C344.15 63.8 346.96 63.35 348.7 62.45C350.43 61.55 351.3 60.35 351.3 58.85C351.3 57.35 350.33 55.75 348.4 54.05C346.46 52.35 344.35 50.83 342.05 49.5C339.75 48.17 337.63 46.53 335.7 44.6C333.77 42.67 332.8 40.7 332.8 38.7C332.8 35.17 335.58 31.48 341.15 27.65C346.71 23.82 351.33 21.9 355 21.9Z" fill="black"/>
<path d="M111.81 95.21C113.38 95.09 114.8 96.14 115.13 97.68C116.7 104.89 122.55 124.39 140.06 127.23C156.36 129.87 166.98 127.05 171.07 125.58C172.03 125.24 173.05 125.9 173.12 126.92L173.32 129.66C173.41 130.87 172.56 131.95 171.36 132.15C165.91 133.04 151.02 135.11 139.49 133.28C123.01 130.66 110.27 116.77 107.03 98.2C106.79 96.81 107.8 95.5 109.21 95.4L111.81 95.21Z" fill="black"/>
<path d="M234.84 20.58C234.43 20.76 233.94 20.61 233.7 20.23C232.59 18.43 229.14 13.71 224.13 14.61C219.47 15.45 216.86 17.23 215.89 18.01C215.66 18.19 215.32 18.11 215.21 17.84L214.89 17.12C214.75 16.8 214.79 15.35 215.1 15.18C216.49 14.42 220.41 12.52 223.7 11.91C228.41 11.05 233.18 13.59 235.83 18.31C236.03 18.66 235.88 20.11 235.51 20.28L234.84 20.58Z" fill="black"/>
</g>
<defs>
<clipPath id="clip0">
<rect width="364.4" height="134.02" fill="current"/>
</clipPath>
</defs>
</svg>
