<svg width="180" height="55" viewBox="0 0 230 64" fill="none" xmlns="http://www.w3.org/2000/svg">
<rect opacity="0.25" x="1" width="229" height="64" rx="32" fill="#D31172"/>
<path d="M32 4C24.6017 4.08926 17.5315 7.06791 12.2997 12.2997C7.06791 17.5315 4.08926 24.6017 4 32C4.08926 39.3983 7.06791 46.4685 12.2997 51.7003C17.5315 56.9321 24.6017 59.9107 32 60C39.3983 59.9107 46.4685 56.9321 51.7003 51.7003C56.9321 46.4685 59.9107 39.3983 60 32C59.9107 24.6017 56.9321 17.5315 51.7003 12.2997C46.4685 7.06791 39.3983 4.08926 32 4V4ZM48 34H34V48H30V34H16V30H30V16H34V30H48V34Z" fill="#D31172"/>
<path d="M81.176 26.68H83.024L84.416 38.536C86.272 38.344 87.752 37.736 88.856 36.712C89.976 35.688 90.496 34.128 90.416 32.032V31.432C90.416 30.44 90.16 29.64 89.648 29.032C89.136 28.424 88.368 28.088 87.344 28.024L86.144 27.952L86.264 26.464L87.608 26.56C89.016 26.64 90.12 27.064 90.92 27.832C91.736 28.6 92.168 29.72 92.216 31.192L92.24 31.864C92.336 34.616 91.52 36.664 89.792 38.008C88.064 39.352 85.728 40.096 82.784 40.24L81.176 26.68ZM98.5456 38.536C99.3936 38.44 100.106 38.24 100.682 37.936C101.258 37.632 101.738 37.104 102.122 36.352C102.506 35.6 102.746 34.544 102.842 33.184L103.25 28.144H94.6096V26.68H105.218L105.146 28L104.762 32.824C104.65 35.144 104.058 36.904 102.986 38.104C101.93 39.304 100.514 39.936 98.7376 40L98.5456 38.536ZM94.6576 33.184L94.9216 31.552H96.5056V44.8H94.6576V33.184ZM108.31 29.488L107.998 26.68H109.822L110.158 29.488V33.064L110.134 34.576L108.31 34.96V29.488ZM113.677 29.488L113.365 26.68H115.189L115.525 29.488V40H113.677V29.488ZM124.996 31.072C124.996 30.032 124.772 29.288 124.324 28.84C123.876 28.376 123.236 28.144 122.404 28.144H118.156V26.68H122.812C125.5 26.68 126.844 28.168 126.844 31.144V40H124.996V31.072ZM130.34 38.536H134.276C135.524 38.536 136.516 38.192 137.252 37.504C138.004 36.8 138.38 35.648 138.38 34.048V32.584C138.38 31.128 138.1 30.024 137.54 29.272C136.98 28.52 136.132 28.144 134.996 28.144H132.476L131.852 30.808C131.756 31.256 131.708 31.656 131.708 32.008C131.708 32.552 131.852 32.976 132.14 33.28C132.444 33.584 132.94 33.8 133.628 33.928L133.244 35.2C132.124 35.088 131.308 34.776 130.796 34.264C130.3 33.736 130.052 33.008 130.052 32.08C130.052 31.632 130.1 31.16 130.196 30.664L131.108 26.68H135.308C136.86 26.68 138.06 27.192 138.908 28.216C139.772 29.24 140.212 30.712 140.228 32.632V33.976C140.228 36.056 139.708 37.584 138.668 38.56C137.628 39.52 136.268 40 134.588 40H130.34V38.536ZM148.177 29.488L147.865 26.68H149.689L150.025 29.488V33.064L150.001 34.576L148.177 34.96V29.488ZM158.56 22.96H159.856L153.208 43.84H151.912L158.56 22.96ZM166.781 26.68C168.317 26.68 169.493 27.192 170.309 28.216C171.141 29.224 171.565 30.696 171.581 32.632V44.8H169.733V32.584C169.733 29.624 168.621 28.144 166.397 28.144H163.877L163.421 30.352C163.325 30.848 163.277 31.296 163.277 31.696C163.277 32.24 163.381 32.68 163.589 33.016C163.813 33.336 164.157 33.552 164.621 33.664L164.165 34.864C163.253 34.72 162.589 34.4 162.173 33.904C161.757 33.408 161.549 32.728 161.549 31.864C161.549 31.352 161.605 30.824 161.717 30.28L162.485 26.68H166.781ZM185.546 32.296C185.706 37.304 182.538 39.952 176.042 40.24L174.578 28.144L174.41 26.68H180.962C182.37 26.68 183.466 27.12 184.25 28C185.05 28.864 185.474 30.048 185.522 31.552L185.546 32.296ZM177.674 38.536C179.578 38.36 181.082 37.808 182.186 36.88C183.29 35.952 183.794 34.408 183.698 32.248V31.672C183.698 30.632 183.442 29.784 182.93 29.128C182.434 28.472 181.73 28.144 180.818 28.144H176.426L177.674 38.536ZM188.677 29.488L188.365 26.68H190.189L190.525 29.488V40H188.677V29.488ZM201.844 31.072C201.844 30.032 201.62 29.288 201.172 28.84C200.724 28.376 200.084 28.144 199.252 28.144H193.636V26.68H199.66C202.348 26.68 203.692 28.168 203.692 31.144V40H201.844V31.072ZM193.612 33.52L193.876 31.912H195.46V40H193.612V33.52Z" fill="#020A2F"/>
</svg>
